<svg class="h-[13px] text-brand-foreground lg:h-[17px]" fill="currentColor" viewBox="0 0 100 20" xmlns="http://www.w3.org/2000/svg">
  <!-- Anchor icon -->
  <path d="M8 10c0-1.1.9-2 2-2s2 .9 2 2-.9 2-2 2-2-.9-2-2zm2-4c-2.2 0-4 1.8-4 4s1.8 4 4 4 4-1.8 4-4-1.8-4-4-4z"/>
  <path d="M10 2c-4.4 0-8 3.6-8 8s3.6 8 8 8 8-3.6 8-8-3.6-8-8-8zm0 14c-3.3 0-6-2.7-6-6s2.7-6 6-6 6 2.7 6 6-2.7 6-6 6z"/>
  <path d="M10 6c-2.2 0-4 1.8-4 4s1.8 4 4 4 4-1.8 4-4-1.8-4-4-4zm0 6c-1.1 0-2-.9-2-2s.9-2 2-2 2 .9 2 2-.9 2-2 2z"/>
  
  <!-- Relay text -->
  <text x="25" y="14" font-family="Arial, sans-serif" font-size="12" font-weight="bold" fill="currentColor">Relay</text>
  
  <!-- HTTPS lock icon -->
  <rect x="70" y="6" width="8" height="6" rx="1" fill="currentColor"/>
  <path d="M72 4c0-1.1.9-2 2-2s2 .9 2 2v2h-4V4z" fill="currentColor"/>
  <circle cx="74" cy="9" r="1" fill="white"/>
</svg>
