<svg height="50" viewBox="0 0 210 50" width="210" xmlns="http://www.w3.org/2000/svg"><g fill="none" fill-rule="evenodd"><path d="m0 0h210v50h-210z" fill="#fff"/><g fill="#333"><path d="m85 21h12v4h-8v12h8v4h-12z"/><path d="m113 21v20h-12v-20zm-4 4h-4v12h4z" fill-rule="nonzero"/><path d="m117 21h8v4h-4v12h4v4h-8z"/><path d="m125 25h4v12h-4z"/><path d="m133 21h12v4h-8v4h8v4h-8v4h8v4h-12z"/><path d="m157 21h12v4h-8v4h4v4h-4v8h-4z"/><path d="m149 37h4v4h-4z"/><path d="m173 21v20h12v-20h-4v16h-4v-16z"/><path d="m189 21v20h12v-20h-4v16h-4v-16z" transform="matrix(1 0 0 -1 0 62)"/></g><path d="m30.5 17 3.5-3.5-3.5-3.5-3.5 3.5z" fill="#0062ff"/><path d="m27 20.5 3.5-3.5-3.5-3.5-3.5 3.5z" fill="#00c5ff"/><path d="m20 27.5 3.5-3.5-3.5-3.5-3.5 3.5z" fill="#0062ff"/><path d="m20 20.5 3.5-3.5-3.5-3.5-3.5 3.5z" fill="#0062ff"/><path d="m20 13.5 3.5-3.5-3.5-3.5-3.5 3.5z" fill="#e8ce2f"/><path d="m13 20.5 3.5-3.5-3.5-3.5-3.5 3.5z" fill="#00c5ff"/><path d="m9.5 10 3.5-3.5-3.5-3.5-3.5 3.5z" fill="#e8ce2f"/><path d="m27 13.5 3.5-3.5-3.5-3.5-3.5 3.5z" fill="#00c5ff"/><path d="m45 24.5 14.2913565-6.9834366 11.7086435.9834366 4.5 4.5-15.9977603 15.9983652z" fill="#0058e6"/><path d="m20 27.5 14 14c7 7 16 7 23 0 4.6666667-4.6666667 8.3344478-8.3333333 11.0033433-11-5.0033433 5-12.0033433 5-17.0033433 0l-17-17z" fill="#00c5ff"/><path d="m49.0776017 22.4919291 10.2137548-4.9753657c2.2057623-1.0777089 4.1086435-1.6165634 5.7086435-1.6165634 2.8 0 4.90347 1.5 6 2.6l4.5 4.5-6.5 6.5c-3 3-9.7086435 2.977521-13.3356122-.5229918z" fill="#0062ff"/><path d="m27 27.5 3.5-3.5-3.5-3.5-3.5 3.5z" fill="#e8ce2f"/><path d="m30.5 24 3.5-3.5-3.5-3.5-3.5 3.5z" fill="#0062ff"/><circle cx="65" cy="20" fill="#fff" r="1.9"/></g></svg>