<svg fill="none" height="100" viewBox="0 0 100 100" width="100" xmlns="http://www.w3.org/2000/svg"><path d="m50 0c27.6142 0 50 22.3858 50 50s-22.3858 50-50 50-50-22.3858-50-50 22.3858-50 50-50z" fill="#6965db"/><path clip-rule="evenodd" d="m35.2632 28.9474c-2.8948 0-5.2632 2.3684-5.2632 5.2631v31.579c0 2.8947 2.3684 5.2631 5.2632 5.2631h29.4736c2.8948 0 5.2632-2.3684 5.2632-5.2631v-31.579c0-2.8947-2.3684-5.2631-5.2632-5.2631zm5.7894 10.5263c0-1.4474 1.1842-2.6316 2.6316-2.6316h12.6316c1.4474 0 2.6316 1.1842 2.6316 2.6316s-1.1842 2.6316-2.6316 2.6316h-12.6316c-1.4474 0-2.6316-1.1842-2.6316-2.6316zm2.6316 7.8947c-1.4474 0-2.6316 1.1842-2.6316 2.6316s1.1842 2.6316 2.6316 2.6316h12.6316c1.4474 0 2.6316-1.1842 2.6316-2.6316s-1.1842-2.6316-2.6316-2.6316zm-2.6316 13.1579c0-1.4474 1.1842-2.6316 2.6316-2.6316h12.6316c1.4474 0 2.6316 1.1842 2.6316 2.6316s-1.1842 2.6316-2.6316 2.6316h-12.6316c-1.4474 0-2.6316-1.1842-2.6316-2.6316z" fill="#fff" fill-rule="evenodd"/></svg>