<svg height="80" viewBox="0 0 300 80" width="300" xmlns="http://www.w3.org/2000/svg"><path d="m0 0h300v80h-300z" fill="#fff"/><g fill="#545454" transform="translate(50 40)"><path d="m0 16q3 0 6 0 2-4 4-8 2 4 4 8 3 0 6 0-4-8-8-16-4 8-8 16z"/><path d="m22 0q0 8 0 16 3 0 6 0 0-8 0-16-3 0-6 0z"/><path d="m32 16q3 0 6 0 0-2 0-4 4 0 8 0 0 2 0 4 3 0 6 0 0-8 0-16-3 0-6 0-4 0-8 0-3 0-6 0 0 8 0 16zm6-8q0-2 0-4 4 0 8 0 0 2 0 4-4 0-8 0z"/><path d="m54 16q3 0 6 0 0-2 0-4 4 0 8 0 0 2 0 4 3 0 6 0 0-8 0-16-3 0-6 0-4 0-8 0-3 0-6 0 0 8 0 16zm6-8q0-2 0-4 4 0 8 0 0 2 0 4-4 0-8 0z"/><path d="m76 16q3 0 6 0 0-2 0-4 3 1 6 2 3-1 6-2 0 2 0 4 3 0 6 0 0-8 0-16-3 0-6 0 0 2 0 4-3-1-6-2-3 1-6 2 0-2 0-4-3 0-6 0 0 8 0 16z"/><path d="m104 0q-4 6-8 12-1 2-2 4 3 0 6 0 0-2 0-4 4 0 8 0 0 2 0 4 3 0 6 0-1-2-2-4-4-6-8-12zm-2 8q1-2 2-4 1 2 2 4-2 0-4 0z"/><path d="m118 16q6 0 12 0 0-3 0-6-3 0-6 0 0-2 0-4 3 0 6 0 0-3 0-6-6 0-12 0 0 8 0 16z"/></g><path d="m210 40q5 0 10-10 5 10 10 10m5-15a5 5 0 1 1 0 10m5-10v15" fill="none" stroke="#545454" stroke-width="3"/></svg>