<svg fill="none" height="64" viewBox="0 0 200 64" width="200" xmlns="http://www.w3.org/2000/svg"><path d="m0 0h200v64h-200z" fill="#fff"/><path d="m50 45s-5-5-5-15c0-15 15-20 20-20s20 5 20 20c0 10-5 15-5 15" fill="#6c5ce7"/><path d="m50 45s-5-5-5-15c0-15 15-20 20-20s20 5 20 20c0 10-5 15-5 15" stroke="#4834d4" stroke-width="2"/><circle cx="65" cy="25" fill="#fd9644" r="7"/><path d="m50 45 5 10 10-10 10 10 5-10" fill="#ff7675"/><circle cx="125" cy="25" fill="#fdcb6e" r="12"/><path d="m119 35 2 10h8l2-10" fill="#ffeaa7"/><path d="m122 45h6v3h-6z" fill="#636e72"/><g stroke="#ffecb3" stroke-linecap="round" stroke-width="2"><path d="m115 25h5"/><path d="m130 25h5"/><path d="m125 15v5"/></g><path d="m165 20 2.5 5 5.5 1-4 4 1 5-5-2.5-5 2.5 1-5-4-4 5.5-1z" fill="#74b9ff" stroke="#0984e3"/><path d="m185 30 2 3.5 4 .5-3 3 1 4-4-2-4 2 1-4-3-3 4-.5z" fill="#74b9ff" stroke="#0984e3"/><path d="m175 40 1.5 2.5 2.5.5-2 2.5.5 2.5-2.5-1.5-2.5 1.5.5-2.5-2-2.5 2.5-.5z" fill="#74b9ff" stroke="#0984e3"/></svg>