<svg  viewBox="0 0 63 23" fill="none" xmlns="http://www.w3.org/2000/svg">
<g id="Union">
<path d="M11.9415 0.0976562C9.29624 0.0976562 7.08791 2.18559 6.56748 4.96537C7.42199 5.01642 8.22823 5.24662 8.94917 5.61893C9.0605 3.88278 10.3578 2.51288 11.9418 2.51288C13.5988 2.51288 14.9421 4.01207 14.9421 5.86141C14.9421 6.03444 14.9304 6.20441 14.9077 6.37037L12.5838 7.80578L15.2388 11.1246C16.5705 10.0065 17.4317 8.22797 17.4317 6.22494C17.4317 2.84093 14.9737 0.0976562 11.9415 0.0976562Z" fill="white" fill-opacity="0.98"/>
<path d="M10.2989 11.0671H10.282C10.1809 10.9319 10.0786 10.7949 9.97485 10.6559L9.73843 10.3395C8.16644 8.23657 5.94228 8.14226 4.64994 8.53902C3.48579 8.89642 2.54713 10.0352 2.7469 11.5622C2.83362 12.2252 3.23563 12.7647 3.88071 13.1748C4.5449 13.5971 5.62718 13.5967 6.58742 13.3835L5.94824 16.5182C4.84712 16.5182 3.53203 16.1748 2.42209 15.4691C1.29304 14.7513 0.269068 13.5808 0.0511357 11.9149C-0.339493 8.929 1.56379 6.64251 3.85202 5.94C4.6294 5.70133 5.6032 5.57485 6.64439 5.67419C6.60763 5.68169 6.6129 5.68503 6.66786 5.67647C8.43602 5.85077 10.3954 6.67752 11.916 8.71162L12.0653 8.91138C12.6907 9.74822 13.2172 10.4527 13.6929 11.0479H13.71C13.8126 11.185 13.9165 11.3241 14.0218 11.4651L14.2582 11.7816C14.4675 12.0617 14.6884 12.3061 14.9171 12.5184C16.1032 14.1066 17.6371 15.7587 19.5895 16.3243C17.4594 16.7759 14.3019 16.3808 12.0806 13.4095L11.9313 13.2097C11.3038 12.37 10.7759 11.6635 10.2989 11.0671Z" fill="white" fill-opacity="0.98"/>
<path d="M18.8496 15.8362C17.68 15.1365 16.8698 14.3501 16.061 13.3071C17.2594 13.8909 18.5021 13.8414 19.3467 13.5821C20.5108 13.2247 21.4495 12.0859 21.2497 10.5588C21.163 9.89592 20.761 9.3564 20.1159 8.94629C19.4517 8.52402 18.3694 8.52441 17.4092 8.73759L18.0484 5.60292C19.1495 5.60292 20.4646 5.94629 21.5745 6.65195C22.7036 7.36975 23.7275 8.54033 23.9455 10.2062C24.3361 13.1921 22.4328 15.4786 20.1446 16.1811C20.036 16.2144 19.9236 16.2456 19.8077 16.2742C19.5009 16.1732 19.1768 16.032 18.8496 15.8362Z" fill="white" fill-opacity="0.98"/>
<path d="M17.4414 17.069C16.9775 19.9287 14.7353 22.0977 12.0392 22.0977C9.00709 22.0977 6.54905 19.3544 6.54905 15.9704C6.54905 13.9811 7.39847 12.2132 8.71459 11.0939L8.74037 11.0577L11.394 14.3748L9.07549 15.8069C9.05117 15.9786 9.03854 16.1546 9.03854 16.3339C9.03854 18.1832 10.3818 19.6824 12.0389 19.6824C13.6684 19.6824 14.9946 18.2326 15.0381 16.4257C15.7653 16.7952 16.579 17.0221 17.4414 17.069Z" fill="white" fill-opacity="0.98"/>
<path fill-rule="evenodd" clip-rule="evenodd" d="M47.1767 12.9395V10.9766H51.4671V15.5066L51.4607 15.517C51.1147 16.0767 50.5613 16.5222 49.8047 16.8551C49.0579 17.1781 48.2309 17.3393 47.3247 17.3393C46.2469 17.3393 45.2883 17.0975 44.4501 16.6127C43.6122 16.1281 42.9609 15.4515 42.4967 14.5836C42.0324 13.7157 41.8009 12.7225 41.8009 11.6052C41.8009 10.4778 42.0375 9.47947 42.5119 8.61137C42.9961 7.7438 43.6576 7.07196 44.4955 6.59744C45.3333 6.12306 46.2616 5.8861 47.2797 5.8861C48.2974 5.8861 49.1813 6.1179 49.9299 6.58315C50.6876 7.03783 51.2003 7.6256 51.4645 8.3469L51.4769 8.38083L49.6035 9.45804L49.5835 9.41629C49.3666 8.96267 49.0565 8.60858 48.6532 8.35284C48.2507 8.08777 47.7731 7.95407 47.2196 7.95407C46.6367 7.95407 46.1142 8.10215 45.651 8.39782C45.1879 8.69338 44.8226 9.11741 44.5553 9.67169C44.2883 10.2255 44.1541 10.8696 44.1541 11.6052C44.1541 12.3608 44.2883 13.0148 44.5552 13.5684C44.8321 14.1221 45.217 14.5461 45.7098 14.8418C46.2129 15.1377 46.7958 15.2863 47.4599 15.2863C48.225 15.2863 48.8195 15.0778 49.249 14.6654V12.9395H47.1767ZM49.6223 9.39776L49.6034 9.35912C49.5886 9.32928 49.5734 9.29986 49.5578 9.27089C49.5801 9.3123 49.6016 9.35459 49.6223 9.39776Z" fill="white" fill-opacity="0.98"/>
<path d="M62.7655 6.08131L58.8754 11.4851L62.9455 17.1591H60.1365L57.486 13.3322L54.8206 17.1591H52.1916L56.247 11.5299L52.3725 6.08131H55.136L57.6363 9.68294L60.1366 6.08131H62.7655Z" fill="white" fill-opacity="0.98"/>
<path d="M37.7927 10.1693V17.1591H39.9507V6.08131H38.2329L34.5169 11.7374L30.786 6.08131H28.9931V17.1591H31.1361V10.1395L33.8784 14.2309H35.0654L37.7927 10.1693Z" fill="white" fill-opacity="0.98"/>
</g>
</svg>
