<svg fill="none" height="108" viewBox="0 0 300 108" width="300" xmlns="http://www.w3.org/2000/svg"><g fill="#484848"><path d="m269.65 49.1929c-.904-1.5814-2.15-2.8217-3.739-3.7208-1.589-.8992-3.427-1.3437-5.504-1.3437s-3.77.4651-5.297 1.3953c-1.1.6512-1.983 1.5194-2.648 2.6149v-2.3565c0-.5684-.467-1.0335-1.038-1.0335h-3.531c-.571 0-1.039.4651-1.039 1.0335v25.8907c0 .5684.468 1.0335 1.039 1.0335h3.79c.572 0 1.039-.4651 1.039-1.0335v-15.4517c0-1.3747.26-2.5633.779-3.5658.519-1.0026 1.246-1.7571 2.181-2.2738.966-.5478 2.056-.8269 3.271-.8269s2.285.2791 3.22.8269c.965.5167 1.713 1.2712 2.232 2.2738.52.9612.779 2.1498.779 3.5658v15.4517c0 .5684.468 1.0335 1.039 1.0335h3.738c.572 0 1.039-.4651 1.039-1.0335v-17.0021c0-2.0671-.447-3.8965-1.35-5.4778z"/><path d="m238.951 44.7487h-3.791c-.573 0-1.038.4627-1.038 1.0335v25.8907c0 .5708.465 1.0335 1.038 1.0335h3.791c.574 0 1.039-.4627 1.039-1.0335v-25.8907c0-.5708-.465-1.0335-1.039-1.0335z"/><path d="m219.489 56.645c-.26-.4031-.218-.9302.114-1.2713l8.392-8.8783c.623-.6614.155-1.7363-.759-1.7363h-4.476c-.28 0-.55.1137-.747.31l-11.476 11.8033v-22.2525c0-.5685-.468-1.0336-1.039-1.0336h-3.79c-.572 0-1.039.4651-1.039 1.0336v37.053c0 .5685.467 1.0336 1.039 1.0336h3.79c.571 0 1.039-.4651 1.039-1.0336v-7.4519l4.216-4.4547 8.298 12.4854c.187.2894.519.4651.862.4651h4.268c.821 0 1.319-.9095.862-1.602l-9.554-14.4595z"/><path d="m192.041 46.0405c-2.109-1.2713-4.497-1.9121-7.166-1.9121-2.212 0-4.186.4445-5.92 1.3437-1.381.7131-2.534 1.664-3.479 2.8319v-2.5219c0-.5684-.467-1.0335-1.038-1.0335h-3.531c-.572 0-1.039.4651-1.039 1.0335v36.2263c0 .5684.467 1.0335 1.039 1.0335h3.79c.571 0 1.039-.4651 1.039-1.0335v-12.5474c.851 1.0439 1.911 1.881 3.167 2.5218 1.797.8992 3.791 1.3437 5.972 1.3437 2.7 0 5.109-.6408 7.218-1.9121 2.108-1.3126 3.769-3.0697 4.985-5.2712 1.246-2.2014 1.869-4.682 1.869-7.4416s-.623-5.2401-1.869-7.4416c-1.216-2.2015-2.888-3.9482-5.037-5.2195zm-.312 17.4155c-.727 1.3746-1.734 2.4599-3.012 3.2557-1.277.7958-2.752 1.1886-4.413 1.1886-1.662 0-3.095-.3928-4.414-1.1886-1.278-.7958-2.306-1.8811-3.064-3.2557-.727-1.416-1.09-2.9973-1.09-4.7544 0-1.757.363-3.328 1.09-4.7027.758-1.3746 1.786-2.4599 3.064-3.2557 1.319-.7958 2.783-1.1886 4.414-1.1886 1.63 0 3.136.3928 4.413 1.1886 1.278.7958 2.285 1.8811 3.012 3.2557.758 1.3747 1.142 2.9457 1.142 4.7027 0 1.7571-.384 3.3384-1.142 4.7544z"/><path d="m157.561 45.3687c-1.692-.8269-3.655-1.2403-5.867-1.2403-1.766 0-3.448.2894-5.037.8786-1.558.5891-2.929 1.4159-4.102 2.4805-.925.8165-1.652 1.7364-2.171 2.7699-.239.4755-.01 1.0336.467 1.2713l3.064 1.5193c.53.2688 1.174.0207 1.485-.4754.519-.8372 1.205-1.5503 2.036-2.1291 1.173-.8269 2.544-1.2403 4.102-1.2403 1.693 0 3.043.4444 4.05 1.3436 1.039.8579 1.558 1.9845 1.558 3.3591v1.1472c-.125-.0206-.249-.0413-.374-.0206l-8.557 1.4056c-2.15.3411-3.926.9302-5.349 1.7571-1.423.8268-2.472 1.8397-3.167 3.049-.655 1.2092-.987 2.5632-.987 4.0825 0 1.6227.395 3.0283 1.194 4.2376.8 1.1679 1.901 2.0981 3.324 2.7906 1.454.6512 3.136.9819 5.036.9819 1.589 0 3.033-.2274 4.31-.6718 1.319-.4444 2.472-1.0852 3.479-1.9121.499-.3927.935-.8372 1.351-1.3126v2.2428c0 .5685.467 1.0336 1.038 1.0336h3.531c.571 0 1.039-.4651 1.039-1.0336v-17.7772c0-1.9328-.488-3.6175-1.454-5.0644-.935-1.478-2.264-2.6356-3.999-3.4625zm-.415 15.7101c0 1.416-.332 2.7079-.987 3.8758-.654 1.137-1.589 2.0465-2.804 2.739-1.173.6925-2.565 1.0335-4.154 1.0335-1.277 0-2.337-.3307-3.167-.9818-.8-.6925-1.195-1.5711-1.195-2.6356 0-1.0646.364-1.9948 1.091-2.6873.727-.7235 1.869-1.2196 3.427-1.4986l7.758-1.354s.021 0 .031-.0103z"/><path d="m131.38 34.2065h-3.998c-.572 0-1.039.4651-1.039 1.0336v25.5702l-19.057-26.18c-.197-.2687-.509-.4238-.841-.4238h-3.365c-.571 0-1.039.4651-1.039 1.0336v36.4329c0 .5685.468 1.0336 1.039 1.0336h4.05c.571 0 1.039-.4651 1.039-1.0336v-25.8803l19.005 26.4798c.197.2687.509.4341.841.4341h3.355c.571 0 1.038-.4651 1.038-1.0336v-36.4329c0-.5685-.467-1.0336-1.038-1.0336z"/><path d="m44.578 89.4628c.4154 1.54 2.3471 2.0568 3.4791.9302l29.5669-29.4461-35.2685 20.2578 2.2225 8.2684z"/><path d="m32.1156 22.2805c-1.3813-.7959-3.1156.1964-3.1156 1.788v17.9013l18.6832-10.7387z"/><path d="m53.2393 34.4351-24.2393 13.922v14.0564l36.4524-20.9502z"/><path d="m80.0957 49.8874-9.0871-5.2298-42.0086 24.144v10.4906c0 1.5503 1.6305 2.5115 3.0014 1.8397l48.0943-27.658c1.3812-.7959 1.3812-2.7803 0-3.5761z"/><path d="m237.061 40.6765c1.967 0 3.562-1.5872 3.562-3.5451s-1.595-3.5451-3.562-3.5451c-1.968 0-3.562 1.5872-3.562 3.5451s1.594 3.5451 3.562 3.5451z"/><path clip-rule="evenodd" d="m231 79c-1.657 0-3 1.3431-3 3v14c0 1.6569 1.343 3 3 3h37c1.657 0 3-1.3431 3-3v-14c0-1.6569-1.343-3-3-3zm1.47 2.986v13.014h1.854v-1.224c.252.324 1.206 1.458 3.024 1.458 2.682 0 4.59-2.034 4.59-4.914 0-2.898-1.782-4.95-4.464-4.95-1.782 0-2.79 1.08-3.042 1.494v-4.878zm4.68 11.52c-1.728 0-2.79-1.44-2.79-3.168 0-2.052 1.242-3.222 2.808-3.222 1.638 0 2.79 1.332 2.79 3.222 0 1.926-1.206 3.168-2.808 3.168zm10.786-8.136c-2.574 0-4.572 2.052-4.572 4.968 0 2.844 1.944 4.896 4.878 4.896 2.232 0 3.474-1.278 3.924-2.052l-1.296-.972c-.36.522-1.17 1.314-2.592 1.314-1.674 0-2.88-1.08-2.916-2.754h7.074c.018-.162.018-.324.018-.486 0-2.952-1.674-4.914-4.518-4.914zm2.52 4.05h-5.022c.126-1.476 1.17-2.412 2.52-2.412s2.43.864 2.502 2.412zm4.095-3.816v-1.962h1.944v1.962h1.908v1.62h-1.908v4.374c0 1.458.558 1.782 1.602 1.782.162 0 .378-.018.378-.018v1.692s-.342.072-.954.072c-2.286 0-2.97-1.53-2.97-3.834v-4.068h-1.044v-1.62zm8.918 3.402c-2.16 0-3.636 1.278-3.636 3.096 0 1.89 1.566 3.132 3.546 3.132 1.17 0 1.926-.396 2.412-.936l.162.702h1.71v-6.066c0-2.052-.954-3.564-3.744-3.564-1.566 0-2.826.594-3.582 1.08l.756 1.368c.684-.378 1.584-.738 2.628-.738 1.242 0 1.998.648 1.998 1.728v.882c-.36-.324-1.17-.684-2.25-.684zm.324 4.662c-1.188 0-1.998-.684-1.998-1.62s.792-1.62 1.98-1.62 1.998.63 1.998 1.62c0 .972-.828 1.62-1.98 1.62z" fill-rule="evenodd" opacity=".4"/></g></svg>