<svg fill="none" height="64" viewBox="0 0 200 64" width="200" xmlns="http://www.w3.org/2000/svg"><path d="m0 0h200v64h-200z" fill="#fff"/><g transform="translate(25 16)"><path d="m66.9873 16.5235c0 2.8938 1.6816 5.1 4.5754 5.1s4.5754-2.2062 4.5754-5.1-1.6816-5.1-4.5754-5.1-4.5754 2.2062-4.5754 5.1z" fill="#8e75ff"/><path d="m0 2.74996c0-1.51875 1.23121-2.74996 2.75-2.74996h26c1.5188 0 2.75 1.23121 2.75 2.75v26c0 1.5188-1.2312 2.75-2.75 2.75h-26c-1.51878 0-2.75-1.2312-2.75-2.75z" fill="#8e75ff"/><path d="m37.5 10.75c0-1.51879 1.2312-2.75 2.75-2.75h17c1.5188 0 2.75 1.23121 2.75 2.75v17c0 1.5188-1.2312 2.75-2.75 2.75h-17c-1.5188 0-2.75-1.2312-2.75-2.75z" fill="#8e75ff"/><path d="m11 8h9.5v15.5h-9.5z" fill="#fff"/><g fill="#4945ff"><path d="m85.3234 11.7991h3.3673v9.4516h4.8247v2.8938h-8.192z"/><path d="m94.7507 18.0034c0-3.0859 2.2062-6.4531 6.0503-6.4531 3.845 0 6.051 3.3672 6.051 6.4531 0 3.0858-2.206 6.453-6.051 6.453-3.8441 0-6.0503-3.3672-6.0503-6.453zm8.7343 0c0-1.4318-1.003-3.1135-2.684-3.1135-1.68 0-2.683 1.6817-2.683 3.1135s1.003 3.1134 2.683 3.1134c1.681 0 2.684-1.6816 2.684-3.1134z"/><path d="m108.312 18.0034c0-3.0859 2.206-6.4531 6.051-6.4531 3.844 0 6.05 3.3672 6.05 6.4531 0 3.0858-2.206 6.453-6.05 6.453-3.845 0-6.051-3.3672-6.051-6.453zm8.734 0c0-1.4318-1.003-3.1135-2.683-3.1135-1.681 0-2.684 1.6817-2.684 3.1135s1.003 3.1134 2.684 3.1134c1.68 0 2.683-1.6816 2.683-3.1134z"/><path d="m122.18 18.0033c0-3.2382 2.331-6.4804 6.425-6.4804 2.769 0 4.476 1.4043 5.225 3.336h-3.305c-.437-.6236-1.042-.9975-2.045-.9975-1.805 0-2.933 1.7541-2.933 4.1419 0 2.3879 1.128 4.1421 2.933 4.1421 1.003 0 1.608-.4015 2.045-1.0251h3.305c-.749 1.9593-2.456 3.3361-5.225 3.3361-4.094 0-6.425-3.2422-6.425-6.4531z"/><path d="m135.488 11.7991h3.367v12.3454h-3.367z"/></g></g></svg>