<svg fill="none" height="32" viewBox="0 0 216 32" width="216" xmlns="http://www.w3.org/2000/svg"><path clip-rule="evenodd" d="m12.8342 32h6.4172c7.088 0 12.8342-5.7309 12.8342-12.8v-6.4c0-7.06912-5.7462-12.8-12.8342-12.8h-6.4172c-7.08799 0-12.8342 5.73088-12.8342 12.8v6.4c0 7.0691 5.74621 12.8 12.8342 12.8zm9.1771-21.1199c-.1293 0-.2622.0141-.3966.0438-.6366.1408-1.1506.6535-1.2918 1.2887-.3077 1.3837 1.0486 2.5715 2.4578 1.9574.3542-.1542.6423-.4416.7967-.7945.556-1.2692-.3613-2.4954-1.5661-2.4954zm-10.7808.2557h-2.56684c-.17743 0-.32086.1436-.32086.32v4.7107c0 4.1427 3.4258 7.5136 7.6364 7.5136 4.0986 0 7.4538-3.1939 7.6293-7.185.0077-.1798-.1418-.3286-.3225-.3286h-2.5614c-.1687 0-.316.1267-.3279.2947-.1559 2.2416-2.0778 4.0189-4.4175 4.0189-2.4417 0-4.4278-1.935-4.4278-4.3136v-4.7107c0-.1764-.1438-.32-.3209-.32zm86.0742-.8857c.2018-.0487.3962.104.3962.311v14.3997c0 .177-.1437.32-.3208.32h-3.369c-.1771 0-.3209-.143-.3209-.32v-13.5888c0-.1478.1014-.2762.2455-.311zm22.3003-8.32063c.202-.04768.396.10496.396.31168v22.71965c0 .1767-.144.32-.321.32h-2.179c-.094 0-.183-.0406-.244-.1113l-.762-.8858c-1.248.8314-2.746 1.3171-4.355 1.3171-4.626 0-8.33-4.0038-7.813-8.7184.387-3.5331 3.19-6.408 6.721-6.88733 1.804-.2448 3.511.12893 4.942.93443v-7.89027c0-.14816.102-.27712.246-.31104zm-3.647 16.33243c.32-2.5081-1.805-4.6275-4.32-4.3091-1.714.217-3.099 1.5975-3.317 3.3072-.32 2.5082 1.805 4.6275 4.32 4.3091 1.714-.2169 3.099-1.5974 3.317-3.3072zm-14.407-8.34104c1.285 0 2.326 1.03874 2.326 2.32004 0 1.2812-1.041 2.32-2.326 2.32s-2.326-1.0388-2.326-2.32c0-1.2813 1.041-2.32004 2.326-2.32004zm-42.5133.32004c.1772 0 .3209.1433.3209.32v14.4c0 .1769-.1437.32-.3209.32h-3.3689c-.1772 0-.3209-.1431-.3209-.32v-14.4c0-.1767.1437-.32.3209-.32zm-1.6845-8.32004c1.2848 0 2.3263 1.03872 2.3263 2.32s-1.0415 2.32-2.3263 2.32c-1.2847 0-2.3262-1.03872-2.3262-2.32s1.0415-2.32 2.3262-2.32zm17.3263 8.32004c.1771 0 .3208.1433.3208.32v3.0601c0 .089-.0375.1744-.1033.2349l-8.2389 7.585h7.1291c.1472 0 .2756.1001.3112.2425l.8021 3.2c.0507.2019-.1023.3975-.3112.3975h-1.4243-11.6406c-.1771 0-.3209-.1431-.3209-.32v-3.0599c0-.0893.0376-.1744.1033-.2352l7.9181-7.5849h-6.8082c-.1473 0-.2756-.0999-.3113-.2423l-.8021-3.2c-.0507-.2019.1024-.3977.3112-.3977h1.9248zm16.6893.0092c.2021-.0486.3963.104.3963.3111v14.3997c0 .1769-.1438.32-.3209.32h-2.1773c-.0944 0-.1842-.0413-.2452-.1133l-.7533-.8896c-1.2495.8349-2.7507 1.3229-4.3643 1.3229-4.3348 0-7.861-3.5172-7.861-7.84 0-4.3229 3.5262-7.84004 7.861-7.84004 1.4952 0 2.8944.41884 4.0854 1.14464.002-.0005.0038-.0014.0055-.0024l.0023-.0011.0025-.001zm-7.4647 11.3508c2.1231 0 3.8502-1.7226 3.8502-3.84 0-2.1175-1.7271-3.84-3.8502-3.84s-3.8503 1.7225-3.8503 3.84c0 2.1174 1.7272 3.84 3.8503 3.84zm-30.8022-11.36c.1771 0 .3209.1433.3209.32v6.88c0 4.4995-3.7066 8.16-8.2621 8.16s-8.262-3.6605-8.262-8.16v-6.88c0-.1767.1437-.32.3208-.32h3.369c.1771 0 .3209.1433.3209.32v6.88c0 2.2937 1.9071 4.16 4.2513 4.16s4.2514-1.8663 4.2514-4.16v-6.88c0-.1767.1437-.32.3208-.32zm99.8311-.1918c-.56-.56925-.56-1.51185 0-2.06181.56-.56964 1.488-.56964 2.048 0 .56.54996.56 1.49256 0 2.06181-.56.5695-1.488.5695-2.048 0zm9.941 2.0076 1.313-.216v2.415l-1.313.2447c-1.129.2182-1.854.8083-1.854 2.115v5.7316l-2.279-.4713v-5.6107c0-2.7961 1.627-3.6278 4.133-4.2083zm-13.755 10.3132-2.279-.4711v-5.9702c0-1.0212-.734-1.7476-1.816-1.7476-1.081 0-1.815.7264-1.815 1.7476v6.4413l-2.279-.4711v-5.9702c0-1.0212-.734-1.7476-1.816-1.7476-1.101 0-1.835.7264-1.835 1.7476v6.4413l-2.279-.4711v-9.3675l2.279-.4517v1.0606c.637-.7856 1.603-1.2764 2.704-1.2764.773 0 1.719.2943 2.511 1.0603.773-.766 1.622-1.0408 2.704-1.0408 1.603 0 3.921 1.0997 3.921 4.1436zm21.995.0661c2.853 0 5.189-2.3753 5.189-5.2958 0-2.9012-2.336-5.2764-5.189-5.2764-2.873 0-5.209 2.3752-5.209 5.2764 0 2.9205 2.336 5.2958 5.209 5.2958zm-3.026-5.2958c0 1.7133 1.359 3.0956 3.026 3.0956 1.665 0 3.006-1.3823 3.006-3.0956 0-1.694-1.341-3.0569-3.006-3.0569-1.667 0-3.026 1.3629-3.026 3.0569zm-15.29 4.7586 2.279.5372v-10.4425l-2.279.4711zm60.652-7.931c1.333 0 2.279.6896 2.408 1.8017h-1.307c-.112-.4913-.482-.6982-1.119-.6982-.542 0-1.006.2155-1.006.6982 0 .4052.344.5517.766.6294l1.143.2068c.964.1724 1.669.6982 1.669 1.8017 0 1.0258-.8 1.9396-2.468 1.9396-1.549 0-2.504-.7758-2.624-1.9913h1.308c.111.681.705.8879 1.367.8879.671 0 1.127-.2846 1.127-.776 0-.4826-.327-.6809-.834-.7671l-1.17-.2069c-1.015-.1811-1.574-.7586-1.574-1.6809 0-1.0173.826-1.8449 2.314-1.8449zm-23.168.1123v4.9826h3.251v1.1724h-4.533v-6.155zm11.032 6.155h-1.299l-.498-1.6637h-2.34l-.499 1.6637h-1.264l1.952-6.155h1.987zm-2.787-4.9223h-.378l-.645 2.138h1.668zm9.281 1.8104v-.1725c.396-.1982.645-.681.645-1.2413 0-.8793-.662-1.6293-2.021-1.6293h-2.882v6.155h2.959c1.454 0 2.116-.7586 2.116-1.7844 0-.6121-.378-1.1466-.817-1.3275zm-1.531-.6035h-1.445v-1.3707h1.436c.577 0 .869.2242.869.681 0 .4656-.284.6897-.86.6897zm.043 2.6207h-1.488v-1.5431h1.505c.654 0 .972.2672.972.7844s-.353.7587-.989.7587zm-24.32-8.1404v11h1v-11z" fill="#000" fill-rule="evenodd"/></svg>